<svg width="24" height="24" viewBox="0 0 24 24" fill="none" xmlns="http://www.w3.org/2000/svg">
<path d="M17.3627 12.0941C17.3903 14.9694 19.9714 15.9262 20 15.9384C19.9782 16.0059 19.5876 17.302 18.6402 18.6408C17.8212 19.7982 16.9711 20.9514 15.6321 20.9753C14.3164 20.9987 13.8933 20.2209 12.389 20.2209C10.8852 20.2209 10.4152 20.9514 9.16969 20.9987C7.87719 21.046 6.89296 19.7471 6.06715 18.5939C4.37971 16.235 3.09015 11.9282 4.8217 9.02108C5.68189 7.57737 7.21913 6.66316 8.88766 6.63971C10.1569 6.6163 11.3548 7.46535 12.1307 7.46535C12.9061 7.46535 14.3619 6.4443 15.8924 6.59425C16.533 6.62004 18.3315 6.84449 19.4863 8.47893C19.3932 8.53471 17.3404 9.69025 17.3627 12.0941V12.0941ZM14.8899 5.03363C15.5761 4.23049 16.038 3.11245 15.912 2C14.9229 2.03844 13.7268 2.63731 13.0174 3.44001C12.3816 4.15083 11.8247 5.28856 11.975 6.37899C13.0775 6.46146 14.2037 5.83729 14.8899 5.03364" fill="black"/>
</svg>
