<svg width="20" height="18" viewBox="0 0 20 18" fill="none" xmlns="http://www.w3.org/2000/svg">
<mask id="path-2-inside-1" fill="white">
<path d="M3.27498 12.6619L4.16873 11.8631C3.19011 11.0723 2.42121 10.0939 1.91873 9C3.18748 6.14812 6.68748 3.9375 9.99998 3.9375C10.8524 3.94763 11.6971 4.08447 12.5 4.3425L13.4687 3.465C12.3704 3.04724 11.1923 2.82563 9.99998 2.8125C7.9628 2.88145 5.99272 3.48612 4.33323 4.5518C2.67374 5.61747 1.39758 7.09743 0.662478 8.80875C0.612833 8.93234 0.612833 9.06766 0.662478 9.19125C1.21763 10.5171 2.11275 11.7062 3.27498 12.6619Z"/>
</mask>
<path d="M3.27498 12.6619L4.16873 11.8631C3.19011 11.0723 2.42121 10.0939 1.91873 9C3.18748 6.14812 6.68748 3.9375 9.99998 3.9375C10.8524 3.94763 11.6971 4.08447 12.5 4.3425L13.4687 3.465C12.3704 3.04724 11.1923 2.82563 9.99998 2.8125C7.9628 2.88145 5.99272 3.48612 4.33323 4.5518C2.67374 5.61747 1.39758 7.09743 0.662478 8.80875C0.612833 8.93234 0.612833 9.06766 0.662478 9.19125C1.21763 10.5171 2.11275 11.7062 3.27498 12.6619Z" fill="#C7CAD9"/>
<path d="M4.16873 11.8631L5.16828 12.9816L6.48409 11.8056L5.11152 10.6964L4.16873 11.8631ZM1.91873 9L0.548234 8.39029L0.272584 9.00989L0.55566 9.62613L1.91873 9ZM9.99998 3.9375L10.0178 2.43761L10.0089 2.4375H9.99998V3.9375ZM12.5 4.3425L12.041 5.77056L12.8653 6.03547L13.507 5.45423L12.5 4.3425ZM13.4687 3.465L14.4757 4.57673L16.2901 2.93327L14.002 2.06299L13.4687 3.465ZM9.99998 2.8125L10.0165 1.31259L9.98286 1.31222L9.94924 1.31336L9.99998 2.8125ZM0.662478 8.80875L-0.71575 8.21673L-0.722778 8.23309L-0.729415 8.24961L0.662478 8.80875ZM0.662478 9.19125L-0.729415 9.75039L-0.725343 9.76052L-0.721124 9.7706L0.662478 9.19125ZM4.27453 13.7803L5.16828 12.9816L3.16918 10.7447L2.27543 11.5434L4.27453 13.7803ZM5.11152 10.6964C4.30442 10.0442 3.68334 9.24801 3.2818 8.37387L0.55566 9.62613C1.15908 10.9398 2.0758 12.1004 3.22594 13.0298L5.11152 10.6964ZM3.28922 9.60971C4.30241 7.33229 7.24304 5.4375 9.99998 5.4375V2.4375C6.13192 2.4375 2.07255 4.96396 0.548234 8.39029L3.28922 9.60971ZM9.98216 5.43739C10.6864 5.44576 11.3824 5.55888 12.041 5.77056L12.9589 2.91444C12.0119 2.61007 11.0184 2.44949 10.0178 2.43761L9.98216 5.43739ZM13.507 5.45423L14.4757 4.57673L12.4617 2.35327L11.493 3.23077L13.507 5.45423ZM14.002 2.06299C12.736 1.58149 11.3828 1.32764 10.0165 1.31259L9.98346 4.31241C11.0017 4.32363 12.0047 4.513 12.9355 4.86701L14.002 2.06299ZM9.94924 1.31336C7.65157 1.39112 5.41736 2.07295 3.52271 3.28964L5.14375 5.81396C6.56808 4.8993 8.27403 4.37177 10.0507 4.31164L9.94924 1.31336ZM3.52271 3.28964C1.62699 4.50701 0.144611 6.2138 -0.71575 8.21673L2.04071 9.40077C2.65055 7.98105 3.72049 6.72794 5.14375 5.81396L3.52271 3.28964ZM-0.729415 8.24961C-0.923203 8.73202 -0.923203 9.26798 -0.729415 9.75039L2.05437 8.63211C2.14887 8.86735 2.14887 9.13265 2.05437 9.36789L-0.729415 8.24961ZM-0.721124 9.7706C-0.0671713 11.3324 0.980533 12.7172 2.32228 13.8205L4.22767 11.5033C3.24496 10.6952 2.50244 9.70177 2.04608 8.6119L-0.721124 9.7706Z" fill="#C7CAD9" mask="url(#path-2-inside-1)"/>
<mask id="path-4-inside-2" fill="white">
<path d="M7.50012 8.84812C7.54358 8.30909 7.80117 7.80214 8.22579 7.41998C8.65041 7.03782 9.21369 6.80599 9.81262 6.76687L10.9439 5.74312C10.31 5.59291 9.64339 5.59486 9.01059 5.74878C8.37779 5.90271 7.80087 6.20324 7.33736 6.6204C6.87385 7.03756 6.53993 7.55678 6.3689 8.1263C6.19788 8.69582 6.19571 9.29574 6.36262 9.86625L7.50012 8.84812Z"/>
</mask>
<path d="M7.50012 8.84812C7.54358 8.30909 7.80117 7.80214 8.22579 7.41998C8.65041 7.03782 9.21369 6.80599 9.81262 6.76687L10.9439 5.74312C10.31 5.59291 9.64339 5.59486 9.01059 5.74878C8.37779 5.90271 7.80087 6.20324 7.33736 6.6204C6.87385 7.03756 6.53993 7.55678 6.3689 8.1263C6.19788 8.69582 6.19571 9.29574 6.36262 9.86625L7.50012 8.84812Z" fill="#C7CAD9"/>
<path d="M7.50012 8.84812L8.50051 9.96581L8.94709 9.56609L8.99526 8.96868L7.50012 8.84812ZM9.81262 6.76687L9.91037 8.26369L10.4317 8.22964L10.8191 7.87906L9.81262 6.76687ZM10.9439 5.74312L11.9504 6.85531L14.0654 4.9413L11.2898 4.28355L10.9439 5.74312ZM6.36262 9.86625L4.92296 10.2874L5.5908 12.5702L7.36301 10.9839L6.36262 9.86625ZM8.99526 8.96868C9.00606 8.83484 9.07187 8.67655 9.22924 8.53492L7.22235 6.30504C6.53047 6.92773 6.0811 7.78333 6.00497 8.72757L8.99526 8.96868ZM9.22924 8.53492C9.39011 8.39014 9.62935 8.28204 9.91037 8.26369L9.71486 5.27006C8.79803 5.32994 7.91072 5.68551 7.22235 6.30504L9.22924 8.53492ZM10.8191 7.87906L11.9504 6.85531L9.93737 4.63094L8.80612 5.65469L10.8191 7.87906ZM11.2898 4.28355C10.4256 4.07876 9.51897 4.08138 8.65606 4.29128L9.36512 7.20628C9.76781 7.10833 10.1944 7.10706 10.598 7.2027L11.2898 4.28355ZM8.65606 4.29128C7.79302 4.50122 6.99034 4.91468 6.33392 5.50546L8.34081 7.73534C8.61141 7.4918 8.96256 7.30421 9.36512 7.20628L8.65606 4.29128ZM6.33392 5.50546C5.67652 6.09711 5.18629 6.84905 4.93229 7.69488L7.80552 8.55772C7.89358 8.26451 8.07118 7.978 8.34081 7.73534L6.33392 5.50546ZM4.93229 7.69488C4.67783 8.54221 4.67454 9.4383 4.92296 10.2874L7.80227 9.44506C7.71688 9.15318 7.71792 8.84943 7.80552 8.55772L4.93229 7.69488ZM7.36301 10.9839L8.50051 9.96581L6.49973 7.73044L5.36223 8.74857L7.36301 10.9839Z" fill="#C7CAD9" mask="url(#path-4-inside-2)"/>
<mask id="path-6-inside-3" fill="white">
<path d="M19.3375 8.80875C18.6208 7.12868 17.3738 5.67395 15.75 4.62375L18.75 1.91813L17.8687 1.125L1.25 16.0819L2.13125 16.875L5.31875 14.0062C6.73992 14.7566 8.35253 15.1635 10 15.1875C12.0372 15.1186 14.0073 14.5139 15.6667 13.4482C17.3262 12.3825 18.6024 10.9026 19.3375 9.19125C19.3871 9.06766 19.3871 8.93234 19.3375 8.80875ZM12.5 9C12.4974 9.39381 12.3799 9.7801 12.1594 10.1203C11.9389 10.4604 11.6231 10.7425 11.2435 10.9384C10.8639 11.1343 10.4338 11.2371 9.99625 11.2365C9.55868 11.2359 9.12894 11.1319 8.75 10.935L12.15 7.875C12.3747 8.21572 12.4954 8.60381 12.5 9ZM10 14.0625C8.68879 14.0419 7.40243 13.737 6.25 13.1737L7.8375 11.745C8.55959 12.1959 9.43471 12.4043 10.3101 12.3336C11.1855 12.263 12.0055 11.9179 12.6269 11.3586C13.2484 10.7993 13.6318 10.0613 13.7103 9.27345C13.7888 8.48561 13.5573 7.698 13.0562 7.04812L14.85 5.43375C16.2841 6.31968 17.4056 7.55743 18.0812 9C16.8125 11.8519 13.3125 14.0625 10 14.0625Z"/>
</mask>
<path d="M19.3375 8.80875C18.6208 7.12868 17.3738 5.67395 15.75 4.62375L18.75 1.91813L17.8687 1.125L1.25 16.0819L2.13125 16.875L5.31875 14.0062C6.73992 14.7566 8.35253 15.1635 10 15.1875C12.0372 15.1186 14.0073 14.5139 15.6667 13.4482C17.3262 12.3825 18.6024 10.9026 19.3375 9.19125C19.3871 9.06766 19.3871 8.93234 19.3375 8.80875ZM12.5 9C12.4974 9.39381 12.3799 9.7801 12.1594 10.1203C11.9389 10.4604 11.6231 10.7425 11.2435 10.9384C10.8639 11.1343 10.4338 11.2371 9.99625 11.2365C9.55868 11.2359 9.12894 11.1319 8.75 10.935L12.15 7.875C12.3747 8.21572 12.4954 8.60381 12.5 9ZM10 14.0625C8.68879 14.0419 7.40243 13.737 6.25 13.1737L7.8375 11.745C8.55959 12.1959 9.43471 12.4043 10.3101 12.3336C11.1855 12.263 12.0055 11.9179 12.6269 11.3586C13.2484 10.7993 13.6318 10.0613 13.7103 9.27345C13.7888 8.48561 13.5573 7.698 13.0562 7.04812L14.85 5.43375C16.2841 6.31968 17.4056 7.55743 18.0812 9C16.8125 11.8519 13.3125 14.0625 10 14.0625Z" fill="#C7CAD9"/>
<path d="M15.75 4.62375L14.7454 3.50985L13.2921 4.8205L14.9354 5.88328L15.75 4.62375ZM18.75 1.91813L19.7546 3.03203L20.991 1.91697L19.7534 0.803184L18.75 1.91813ZM17.8687 1.125L18.8722 0.0100589L17.8687 -0.893044L16.8653 0.0100588L17.8687 1.125ZM1.25 16.0819L0.246553 14.9669L-0.992271 16.0819L0.246553 17.1968L1.25 16.0819ZM2.13125 16.875L1.1278 17.9899L2.13125 18.893L3.1347 17.9899L2.13125 16.875ZM5.31875 14.0062L6.01912 12.6798L5.0934 12.191L4.3153 12.8913L5.31875 14.0062ZM10 15.1875L9.97819 16.6873L10.0145 16.6879L10.0507 16.6866L10 15.1875ZM19.3375 9.19125L20.7157 9.78327L20.7228 9.76691L20.7294 9.75039L19.3375 9.19125ZM8.75 10.935L7.74655 9.82006L6.13774 11.268L8.05835 12.266L8.75 10.935ZM12.15 7.875L13.4022 7.04921L12.4424 5.59377L11.1466 6.76006L12.15 7.875ZM10 14.0625L9.97642 15.5623L9.98821 15.5625H10V14.0625ZM6.25 13.1737L5.24655 12.0588L3.59467 13.5455L5.59132 14.5214L6.25 13.1737ZM7.8375 11.745L8.63202 10.4727L7.67378 9.87431L6.83405 10.6301L7.8375 11.745ZM13.0562 7.04812L12.0528 5.93318L11.0196 6.86309L11.8683 7.96398L13.0562 7.04812ZM14.85 5.43375L15.6383 4.15761L14.682 3.56686L13.8466 4.31881L14.85 5.43375ZM18.0812 9L19.4517 9.60971L19.7301 8.98398L19.4396 8.36378L18.0812 9ZM20.7172 8.2202C19.8762 6.24861 18.4239 4.56673 16.5646 3.36422L14.9354 5.88328C16.3237 6.78118 17.3655 8.00874 17.9578 9.39729L20.7172 8.2202ZM16.7546 5.73765L19.7546 3.03203L17.7454 0.804223L14.7454 3.50985L16.7546 5.73765ZM19.7534 0.803184L18.8722 0.0100589L16.8653 2.23994L17.7466 3.03307L19.7534 0.803184ZM16.8653 0.0100588L0.246553 14.9669L2.25345 17.1968L18.8722 2.23994L16.8653 0.0100588ZM0.246553 17.1968L1.1278 17.9899L3.1347 15.7601L2.25345 14.9669L0.246553 17.1968ZM3.1347 17.9899L6.3222 15.1212L4.3153 12.8913L1.1278 15.7601L3.1347 17.9899ZM4.61838 15.3327C6.2543 16.1965 8.10021 16.66 9.97819 16.6873L10.0218 13.6877C8.60484 13.6671 7.22555 13.3168 6.01912 12.6798L4.61838 15.3327ZM10.0507 16.6866C12.3484 16.6089 14.5826 15.927 16.4773 14.7104L14.8562 12.186C13.4319 13.1007 11.7259 13.6282 9.94926 13.6884L10.0507 16.6866ZM16.4773 14.7104C18.373 13.493 19.8554 11.7862 20.7157 9.78327L17.9593 8.59923C17.3494 10.0189 16.2795 11.2721 14.8562 12.186L16.4773 14.7104ZM20.7294 9.75039C20.9232 9.26798 20.9232 8.73202 20.7294 8.24961L17.9456 9.36789C17.8511 9.13265 17.8511 8.86735 17.9456 8.63211L20.7294 9.75039ZM11 8.98997C10.9994 9.0889 10.9704 9.19687 10.9007 9.30436L13.4181 10.9362C13.7895 10.3633 13.9954 9.69871 14 9.01003L11 8.98997ZM10.9007 9.30436C10.83 9.41348 10.7162 9.52259 10.5557 9.60541L11.9313 12.2714C12.53 11.9625 13.0479 11.5073 13.4181 10.9362L10.9007 9.30436ZM10.5557 9.60541C10.3947 9.68848 10.2019 9.73674 9.9983 9.73646L9.9942 12.7365C10.6657 12.7374 11.3331 12.5801 11.9313 12.2714L10.5557 9.60541ZM9.9983 9.73646C9.79467 9.73619 9.60218 9.6874 9.44165 9.60398L8.05835 12.266C8.6557 12.5764 9.32269 12.7355 9.9942 12.7365L9.9983 9.73646ZM9.75345 12.0499L13.1534 8.98994L11.1466 6.76006L7.74655 9.82006L9.75345 12.0499ZM10.8978 8.70079C10.9691 8.80898 10.999 8.91779 11.0001 9.01731L13.9999 8.98269C13.9919 8.28982 13.7803 7.62247 13.4022 7.04921L10.8978 8.70079ZM10.0236 12.5627C8.9276 12.5455 7.85865 12.2904 6.90868 11.8261L5.59132 14.5214C6.94622 15.1836 8.44998 15.5383 9.97642 15.5623L10.0236 12.5627ZM7.25345 14.2887L8.84095 12.8599L6.83405 10.6301L5.24655 12.0588L7.25345 14.2887ZM7.04298 13.0173C8.04739 13.6445 9.24516 13.9244 10.4307 13.8288L10.1895 10.8385C9.62426 10.8841 9.07178 10.7473 8.63202 10.4727L7.04298 13.0173ZM10.4307 13.8288C11.6164 13.7331 12.7514 13.2646 13.6304 12.4735L11.6235 10.2437C11.2595 10.5712 10.7545 10.7929 10.1895 10.8385L10.4307 13.8288ZM13.6304 12.4735C14.5125 11.6796 15.0852 10.6039 15.2029 9.42212L12.2177 9.12478C12.1784 9.51864 11.9843 9.91894 11.6235 10.2437L13.6304 12.4735ZM15.2029 9.42212C15.3208 8.23849 14.9694 7.07293 14.2442 6.13227L11.8683 7.96398C12.1452 8.32308 12.2567 8.73274 12.2177 9.12478L15.2029 9.42212ZM14.0597 8.16307L15.8534 6.54869L13.8466 4.31881L12.0528 5.93318L14.0597 8.16307ZM14.0617 6.70989C15.2628 7.45186 16.1783 8.47356 16.7229 9.63622L19.4396 8.36378C18.6329 6.64129 17.3055 5.18749 15.6383 4.15761L14.0617 6.70989ZM16.7108 8.39029C15.6976 10.6677 12.7569 12.5625 10 12.5625V15.5625C13.8681 15.5625 17.9274 13.036 19.4517 9.60971L16.7108 8.39029Z" fill="#C7CAD9" mask="url(#path-6-inside-3)"/>
<rect width="20" height="18" stroke="#C7CAD9"/>
</svg>
