<svg width="330" height="213" viewBox="0 0 330 213" fill="none" xmlns="http://www.w3.org/2000/svg">
<path d="M113.454 101.389C133.628 93.6149 143.68 70.9583 135.905 50.7844C128.131 30.6104 105.474 20.5587 85.3002 28.3331C65.1263 36.1075 55.0745 58.7641 62.8489 78.9381C70.6234 99.112 93.28 109.164 113.454 101.389Z" fill="#215E99"/>
<path d="M297.549 89.1187C310.257 71.6283 306.379 47.1481 288.889 34.4405C271.398 21.733 246.918 25.6103 234.211 43.1007C221.503 60.5911 225.38 85.0714 242.871 97.7789C260.361 110.486 284.842 106.609 297.549 89.1187Z" fill="#215E99"/>
<path d="M266.198 26.99L99.6648 25.7476L99.0807 104.037L265.614 105.28L266.198 26.99Z" fill="#215E99"/>
<path d="M97.9602 75.001C103.71 54.1602 91.4773 32.604 70.6365 26.8537C49.7958 21.1034 28.2396 33.3367 22.4893 54.1774C16.739 75.0181 28.9723 96.5744 49.813 102.325C70.6537 108.075 92.2099 95.8417 97.9602 75.001Z" fill="#EC552F"/>
<path d="M112.937 54.5148L112.89 58.1775C114.125 55.4232 116.264 54.0923 119.299 54.1337C121.962 54.1298 123.997 55.1128 125.449 57.0239C126.9 58.9349 127.623 61.8491 127.558 65.7236C127.543 69.59 126.689 72.4406 125.106 74.3102C123.514 76.1289 121.098 77.0336 117.961 77.0083C116.495 76.9795 115.368 76.7923 114.634 76.4388C113.899 76.0852 113.284 75.5036 112.85 74.737L112.762 86.7089L118.722 86.757L118.698 87.5963L101.605 87.4838L101.629 86.6445L104.19 86.6567L104.4 55.3447L101.941 55.3164L101.965 54.4772L112.937 54.5148ZM118.252 57.7459C117.973 56.6413 117.367 56.1107 116.477 56.0951C115.586 56.0794 114.793 56.675 114.08 57.7801C113.376 58.936 112.99 60.4592 112.983 62.3924L112.915 70.8625C112.913 72.1683 113.149 73.3319 113.659 74.2433C114.169 75.1547 114.928 75.6611 115.971 75.6525C116.963 75.652 117.689 74.9626 118.056 73.6513C118.423 72.34 118.612 69.908 118.656 66.559L118.692 64.1512C118.71 60.9632 118.532 58.8504 118.252 57.7459Z" fill="#FFF7ED"/>
<path d="M131.034 74.1546C129.1 72.1634 128.13 69.3404 128.126 65.6859C128.173 62.0232 129.238 59.1913 131.374 57.182C133.518 55.2237 136.494 54.2302 140.31 54.2525C144.125 54.2748 146.992 55.2306 148.851 57.0771C150.71 58.9236 151.62 61.7037 151.59 65.4682C151.526 73.311 147.603 77.2221 139.76 77.1588C135.894 77.1446 133.019 76.1378 131.034 74.1546ZM142.686 67.6094L142.692 63.6921C142.691 60.7159 142.556 58.5441 142.279 57.1259C141.959 55.7666 141.219 55.0484 140.074 55.0731C139.396 55.0761 138.851 55.2667 138.441 55.6449C138.031 56.0232 137.713 56.6481 137.544 57.5625C137.244 58.9676 137.109 61.0778 137.086 63.9012L137.082 67.5049C137.038 70.8538 137.149 72.8727 137.364 73.5698C137.579 74.2668 137.77 74.811 137.995 75.2453C138.32 75.9771 139.004 76.3387 139.945 76.3463C141.149 76.3645 141.926 75.667 142.336 74.2967C142.539 73.2723 142.658 71.0602 142.686 67.6094Z" fill="#FFF7ED"/>
<path d="M152.673 77.2546L152.723 68.9962L153.299 69.0094C154.092 71.7037 155.119 73.5774 156.493 74.6653C157.815 75.7613 159.523 76.3263 161.559 76.3172C164.696 76.3426 166.264 75.3631 166.314 73.3709C166.329 72.4807 165.919 71.8669 165.168 71.4115C163.961 70.7149 162.414 70.1767 160.577 69.7888C158.504 69.2294 156.763 68.4607 155.312 67.5417C153.617 66.4003 152.817 64.6472 152.803 62.2474C152.788 59.8477 153.584 57.9463 155.079 56.5084C156.575 55.0705 158.556 54.3912 161.014 54.4196C162.532 54.4403 164.055 54.8257 165.678 55.5086C166.244 55.7845 166.726 55.8647 166.989 55.8753C167.303 55.8778 167.549 55.7866 167.772 55.5425C168.002 55.3493 168.251 54.9443 168.578 54.3704L169.104 54.3916L169.072 61.446L168.496 61.4329C166.968 57.3929 164.509 55.3805 161.219 55.3794C159.752 55.3506 158.698 55.6219 157.991 56.0995C157.283 56.5771 156.922 57.261 156.933 57.9903C156.954 58.4568 157.011 58.8134 157.263 59.0868C157.464 59.3682 157.649 59.5478 157.775 59.6844C157.901 59.8211 158.078 59.9497 158.357 60.0622C158.644 60.2256 158.864 60.2952 159.033 60.3729C159.202 60.4506 159.481 60.5631 159.862 60.6594C160.251 60.8067 160.522 60.8682 160.733 60.8869C162.806 61.4463 164.337 61.8826 165.233 62.2629C166.129 62.6433 167.041 63.1254 167.859 63.6747C169.562 64.8671 170.386 66.7731 170.374 69.3337C170.37 71.9452 169.582 73.8976 168.02 75.2416C166.457 76.5857 164.366 77.2302 161.696 77.1832C159.762 77.1761 157.968 76.7292 156.153 75.8157C155.799 75.5585 155.52 75.446 155.257 75.4354C154.579 75.4384 153.938 76.0099 153.276 77.1068L152.673 77.2546Z" fill="#FFF7ED"/>
<path d="M170.498 54.9539L181.792 55.0451L181.647 76.2165L184.207 76.2286L184.183 77.0679L170.482 76.9404L170.506 76.1011L173.066 76.1133L173.239 55.7731L170.518 55.7342L170.498 54.9539ZM177.519 51.8054C175.9 51.8009 174.733 51.359 174.027 50.5308C173.322 49.7026 173 48.6571 173.018 47.4532C173.028 46.1984 173.392 45.2008 174.153 44.4014C174.914 43.602 176.054 43.2127 177.622 43.2253C179.14 43.246 180.349 43.6289 181.141 44.3391C181.932 45.0492 182.305 46.0867 182.311 47.4434C182.317 48.8001 181.91 49.8567 181.149 50.6561C180.337 51.4636 179.139 51.81 177.519 51.8054Z" fill="#FFF7ED"/>
<path d="M186.374 70.4548L186.474 55.9223L183.913 55.9101L183.937 55.0709L186.498 55.0831L186.546 49.1226L195.152 47.0807L195.07 55.1353L201.081 55.1753L201.057 56.0145L195.046 55.9745L194.954 71.5501C194.925 73.0167 195.087 74.0355 195.352 74.7245C195.618 75.4135 196.243 75.7322 197.184 75.7398C198.125 75.7474 198.943 75.3046 199.629 74.3605C200.323 73.4673 200.8 72.1908 201.016 70.59L201.812 70.6727C201.575 72.7991 200.849 74.4806 199.737 75.7011C198.625 76.9216 196.788 77.5257 194.228 77.5136C191.667 77.5014 189.704 76.9768 188.39 75.9317C186.99 75.0047 186.327 73.1254 186.374 70.4548Z" fill="#FFF7ED"/>
<path d="M201.03 55.1833L212.324 55.2744L212.178 76.4458L214.739 76.458L214.715 77.2973L201.014 77.1697L201.038 76.3305L203.598 76.3427L203.72 56.0105L200.998 55.9716L201.03 55.1833ZM208 52.0429C206.38 52.0383 205.214 51.5964 204.508 50.7683C203.803 49.9401 203.48 48.8945 203.499 47.6906C203.509 46.4358 203.873 45.4382 204.634 44.6388C205.395 43.8394 206.535 43.4501 208.103 43.4628C209.621 43.4835 210.83 43.8663 211.621 44.5765C212.413 45.2866 212.786 46.3241 212.792 47.6808C212.798 49.0376 212.391 50.0942 211.63 50.8936C210.869 51.6929 209.67 52.0394 208 52.0429Z" fill="#FFF7ED"/>
<path d="M212.817 56.084L212.841 55.2447L226.644 55.3561L226.621 56.1953L223.695 56.1887L229.108 71.5713L234.209 56.299L231.123 56.2656L231.146 55.4263L237.37 55.485L237.346 56.3243L235.311 56.3333L228.315 77.4409L223.033 77.3898L214.657 56.1582L212.817 56.084Z" fill="#FFF7ED"/>
<path d="M236.53 55.4613L247.824 55.5524L247.678 76.7238L250.239 76.736L250.215 77.5752L236.514 77.4477L236.538 76.6084L239.098 76.6206L239.22 56.2885L236.498 56.2496L236.53 55.4613ZM243.551 52.3128C241.932 52.3082 240.765 51.8663 240.059 51.0381C239.354 50.21 239.032 49.1644 239.05 47.9605C239.06 46.7057 239.424 45.7081 240.185 44.9087C240.946 44.1093 242.086 43.72 243.654 43.7326C245.172 43.7534 246.381 44.1362 247.173 44.8464C247.964 45.5565 248.337 46.594 248.343 47.9507C248.349 49.3074 247.942 50.3641 247.181 51.1634C246.361 51.92 245.171 52.3174 243.551 52.3128Z" fill="#FFF7ED"/>
<path d="M252.405 70.9622L252.506 56.4297L249.945 56.4175L249.969 55.5782L252.529 55.5904L252.578 49.6299L261.183 47.588L261.11 55.6936L267.121 55.7336L267.097 56.5728L261.086 56.5328L260.994 72.1084C260.965 73.575 261.127 74.5938 261.392 75.2828C261.658 75.9717 262.283 76.2905 263.224 76.2981C264.165 76.3057 264.983 75.8629 265.669 74.9188C266.363 74.0256 266.84 72.7491 267.056 71.1482L267.852 71.231C267.615 73.3573 266.889 75.0389 265.777 76.2594C264.665 77.4799 262.828 78.084 260.268 78.0718C257.707 78.0597 255.744 77.5351 254.43 76.49C253.064 75.453 252.409 73.6247 252.405 70.9622Z" fill="#FFF7ED"/>
<path d="M270.34 75.0667C268.398 73.0245 267.42 70.1506 267.416 66.496C267.462 62.8334 268.587 60.0443 270.841 58.1208C273.095 56.1972 275.918 55.228 279.369 55.2558C286.372 55.2954 289.702 58.8411 289.348 65.8421L276.333 65.7625L276.302 67.5429C276.261 70.5781 276.675 72.8623 277.383 74.3689C278.151 75.9183 279.476 76.7006 281.409 76.7077C284.962 76.7194 287.326 74.8306 288.45 71.0495L289.254 71.1832C288.668 73.417 287.578 75.104 286.05 76.3381C284.522 77.5722 282.211 78.1471 279.184 78.1566C275.275 78.2014 272.29 77.1598 270.34 75.0667ZM276.349 64.8723L281.106 64.9022L281.115 62.6553C281.135 60.1456 280.971 58.4484 280.724 57.5476C280.426 56.6549 279.879 56.1672 278.989 56.1515C278.098 56.1359 277.442 56.6054 277.027 57.6111C276.603 58.5658 276.403 60.2685 276.359 62.6254L276.349 64.8723Z" fill="#FFF7ED"/>
<path d="M45.2698 44.3449L45.1649 60.4969C46.3648 57.8526 48.351 56.5459 51.1744 56.5687C56.9231 56.5981 59.7832 60.4792 59.7385 68.1102C59.7324 72.0275 58.8784 74.8781 57.2947 76.7477C55.7029 78.5664 53.2875 79.4711 50.1504 79.4458C48.5309 79.4412 47.3376 79.1602 46.4767 78.67C45.6157 78.1797 45.063 77.3273 44.7836 76.2228L44.431 78.9418L33.9257 78.8824L33.9495 78.0432L36.5101 78.0554L36.7678 45.0649L34.2072 45.0527L34.2309 44.2134L45.2698 44.3449ZM50.3905 60.1915C50.1111 59.0869 49.5049 58.5563 48.6147 58.5406C47.7245 58.525 46.9231 59.0697 46.2104 60.1747C45.4977 61.2797 45.1124 62.8029 45.1052 64.7361L45.053 73.3081C45.051 74.6139 45.2875 75.7775 45.8483 76.6808C46.3582 77.5922 47.1681 78.0905 48.1602 78.09C49.1523 78.0895 49.8276 77.4082 50.2453 76.0888C50.6039 74.7265 50.8012 72.3455 50.8452 68.9965L50.8816 66.5887C50.8559 63.4597 50.7208 61.2879 50.3905 60.1915Z" fill="#215E99"/>
<path d="M63.1049 76.5062C61.1627 74.464 60.1853 71.5902 60.1809 67.9356C60.2274 64.273 61.3522 61.4839 63.6063 59.5604C65.8603 57.6368 68.6832 56.6675 72.134 56.6954C79.1375 56.7349 82.4667 60.2807 82.1134 67.2816L69.0985 67.202L69.0671 68.9824C69.0257 72.0176 69.3888 74.31 70.1483 75.8084C70.9159 77.3578 72.2408 78.1401 74.123 78.1553C77.6757 78.167 80.0397 76.2783 81.164 72.4972L81.9685 72.6308C81.3824 74.8646 80.2919 76.5517 78.7642 77.7858C77.2364 79.0199 74.9254 79.5948 71.8983 79.6043C68.0399 79.641 65.1061 78.5913 63.1049 76.5062ZM69.1731 66.3547L73.9297 66.3846L73.9394 64.1377C73.9596 61.628 73.8462 59.9228 73.5482 59.0301C73.2501 58.1374 72.7029 57.6496 71.8127 57.634C70.9225 57.6183 70.2658 58.0878 69.8507 59.0935C69.4275 60.0483 69.2192 61.7 69.1828 64.1078L69.1731 66.3547Z" fill="#215E99"/>
<path d="M50.9296 116.836L72.2838 125.855L85.8483 112.524L97.0416 126.671L117.412 117.384L114.767 140.271L133.516 154.615L114.593 161.827L118.71 180.125L99.9345 180.347L93.5069 197.389L75.8658 191.579L62.3521 206.33L51.6477 193.29L30.3239 199.419L34.4072 179.892L18.5998 171.144L31.2222 158.903L20.7356 141.3L45.5305 137.512L50.9296 116.836Z" fill="#EC552F"/>
<path d="M47.1142 161.367C48.594 158.834 50.8057 156.742 53.4577 155.451C56.0471 154.205 58.9356 153.747 61.7495 154.138C63.3147 154.343 64.821 154.836 66.2523 155.515C66.8212 155.808 67.583 155.339 67.7741 154.786C68.017 154.12 67.6537 153.586 67.0847 153.293C61.1968 150.428 53.9029 151.444 48.8286 155.696C47.3876 156.935 46.1201 158.39 45.1621 160.039C44.8297 160.58 44.9087 161.299 45.4544 161.665C45.9662 162.037 46.8211 161.936 47.1142 161.367Z" fill="#FFF7ED"/>
<path d="M49.2917 174.016C57.2018 175.132 65.3815 175.09 73.2258 173.151C80.9002 171.239 88.0121 167.535 94.1109 162.493C97.9318 159.345 101.361 155.702 104.446 151.869C104.972 151.228 104.467 150.019 103.601 150.052C102.979 150.081 102.351 150.076 101.728 150.105C101.106 150.134 100.503 150.508 100.436 151.18C100.386 151.746 100.849 152.473 101.506 152.439C102.128 152.41 102.756 152.415 103.379 152.386C103.106 151.767 102.806 151.188 102.534 150.569C97.4763 156.909 91.435 162.534 84.2481 166.424C77.6692 169.974 70.3848 171.929 62.9601 172.339C58.5064 172.591 54.0005 172.295 49.5875 171.705C48.9489 171.632 48.3392 172.181 48.2948 172.78C48.1538 173.43 48.6531 173.943 49.2917 174.016Z" fill="#FFF7ED"/>
<path d="M78.0446 150.79C81.4211 145.936 86.7303 142.726 92.7045 142.616C94.4413 142.585 96.1764 142.763 97.8418 143.161C98.4572 143.307 99.1207 143.098 99.3637 142.432C99.5548 141.879 99.2897 141.085 98.6743 140.939C95.4167 140.166 91.9788 140.014 88.6862 140.779C85.4955 141.528 82.4966 143.048 80.0131 145.184C78.538 146.427 77.2419 147.922 76.1659 149.485C75.2453 150.711 77.1634 152.045 78.0446 150.79Z" fill="#FFF7ED"/>
<path d="M70.3503 148.177C70.6997 153.243 70.5 158.36 69.7637 163.389C69.621 164.247 70.6391 164.957 71.4456 164.55C74.9899 162.735 78.5343 160.92 82.0732 159.07C82.6526 158.769 82.9295 158.098 82.6627 157.514C82.4013 156.963 81.6571 156.663 81.0777 156.964C77.5334 158.779 73.989 160.594 70.4501 162.444C71.0012 162.844 71.5469 163.211 72.132 163.606C72.904 158.363 73.0714 153.041 72.6897 147.772C72.6608 147.149 71.929 146.708 71.3227 146.839C70.643 146.946 70.2874 147.56 70.3503 148.177Z" fill="#FFF7ED"/>
</svg>
