<svg width="209" height="83" viewBox="0 0 209 83" fill="none" xmlns="http://www.w3.org/2000/svg">
<path d="M71.3327 64.2421C84.1212 59.3138 90.4932 44.9515 85.5649 32.163C80.6366 19.3745 66.2743 13.0025 53.4857 17.9308C40.6972 22.8591 34.3253 37.2215 39.2536 50.01C44.1819 62.7985 58.5442 69.1704 71.3327 64.2421Z" fill="#215E99"/>
<path d="M188.033 56.4638C196.089 45.3764 193.631 29.858 182.543 21.8026C171.456 13.7471 155.938 16.205 147.882 27.2924C139.827 38.3798 142.284 53.8981 153.372 61.9536C164.459 70.0091 179.978 67.5512 188.033 56.4638Z" fill="#215E99"/>
<path d="M168.159 17.0792L62.5918 16.2915L62.2215 65.9203L167.789 66.7079L168.159 17.0792Z" fill="#215E99"/>
<path d="M61.511 47.5145C65.1562 34.3033 57.4014 20.6385 44.1902 16.9934C30.979 13.3482 17.3142 21.103 13.669 34.3142C10.0238 47.5254 17.7786 61.1902 30.9898 64.8354C44.201 68.4805 57.8658 60.7257 61.511 47.5145Z" fill="#EC552F"/>
<path d="M71.0051 34.5277L70.9756 36.8495C71.7583 35.1035 73.1143 34.2598 75.0384 34.2861C76.7261 34.2836 78.0165 34.9068 78.9366 36.1182C79.8567 37.3296 80.3148 39.177 80.2735 41.6331C80.2645 44.084 79.7231 45.8911 78.7192 47.0762C77.7101 48.2291 76.179 48.8026 74.1903 48.7866C73.2606 48.7683 72.5467 48.6497 72.0808 48.4255C71.615 48.2014 71.2256 47.8328 70.95 47.3468L70.8942 54.9359L74.6726 54.9664L74.6576 55.4984L63.822 55.4271L63.837 54.8951L65.4602 54.9028L65.5935 35.0538L64.0349 35.0358L64.0499 34.5038L71.0051 34.5277ZM74.3749 36.5759C74.1978 35.8757 73.8135 35.5394 73.2492 35.5294C72.6849 35.5195 72.1819 35.8971 71.7302 36.5976C71.2835 37.3303 71.0392 38.2959 71.0347 39.5214L70.9913 44.8907C70.99 45.7185 71.14 46.4561 71.4632 47.0338C71.7864 47.6115 72.2676 47.9325 72.9288 47.9271C73.5576 47.9268 74.018 47.4898 74.2505 46.6585C74.483 45.8273 74.6029 44.2856 74.6308 42.1627L74.6539 40.6363C74.6648 38.6154 74.552 37.2761 74.3749 36.5759Z" fill="#FFF7ED"/>
<path d="M82.477 46.9774C81.2509 45.7152 80.6365 43.9257 80.6337 41.609C80.6632 39.2872 81.3388 37.492 82.6928 36.2183C84.052 34.9769 85.9384 34.3471 88.357 34.3612C90.7757 34.3754 92.593 34.9813 93.7714 36.1518C94.9498 37.3223 95.5269 39.0846 95.5076 41.471C95.4675 46.4426 92.9803 48.922 88.0087 48.8819C85.5578 48.8728 83.7354 48.2346 82.477 46.9774ZM89.8636 42.8284L89.8675 40.3451C89.8666 38.4584 89.781 37.0817 89.6055 36.1827C89.4028 35.321 88.9335 34.8657 88.2077 34.8814C87.7777 34.8833 87.4327 35.0041 87.1728 35.2439C86.9128 35.4837 86.7107 35.8798 86.6039 36.4595C86.414 37.3502 86.328 38.6879 86.3135 40.4777L86.3112 42.7621C86.2833 44.885 86.3536 46.1648 86.4898 46.6067C86.626 47.0485 86.7468 47.3935 86.8898 47.6688C87.0956 48.1327 87.5292 48.362 88.1258 48.3668C88.8889 48.3783 89.3816 47.9362 89.6413 47.0675C89.7701 46.4182 89.8459 45.0159 89.8636 42.8284Z" fill="#FFF7ED"/>
<path d="M96.1947 48.9427L96.2262 43.7076L96.5917 43.716C97.0939 45.4239 97.7454 46.6117 98.616 47.3014C99.4543 47.9961 100.537 48.3542 101.827 48.3485C103.816 48.3646 104.81 47.7437 104.842 46.4808C104.852 45.9165 104.591 45.5274 104.115 45.2387C103.35 44.7971 102.369 44.456 101.205 44.2101C99.8908 43.8555 98.7875 43.3682 97.8677 42.7856C96.7931 42.0621 96.2861 40.9507 96.2769 39.4295C96.2676 37.9083 96.7719 36.703 97.7199 35.7915C98.6679 34.88 99.9237 34.4494 101.482 34.4673C102.444 34.4804 103.41 34.7247 104.438 35.1577C104.797 35.3326 105.103 35.3834 105.27 35.3901C105.469 35.3917 105.625 35.3339 105.766 35.1791C105.912 35.0567 106.07 34.8 106.277 34.4361L106.61 34.4496L106.59 38.9215L106.225 38.9131C105.257 36.3522 103.697 35.0764 101.612 35.0757C100.682 35.0575 100.014 35.2295 99.5656 35.5322C99.117 35.835 98.8878 36.2685 98.8948 36.7308C98.9086 37.0266 98.9443 37.2526 99.1042 37.4259C99.2318 37.6043 99.3491 37.7181 99.429 37.8048C99.509 37.8914 99.6212 37.973 99.798 38.0443C99.9799 38.1479 100.119 38.192 100.226 38.2412C100.333 38.2905 100.51 38.3618 100.752 38.4228C100.998 38.5162 101.17 38.5552 101.304 38.567C102.618 38.9217 103.589 39.1982 104.157 39.4393C104.724 39.6804 105.303 39.9861 105.821 40.3343C106.901 41.0901 107.423 42.2984 107.415 43.9216C107.413 45.5771 106.914 46.8147 105.923 47.6667C104.933 48.5187 103.607 48.9273 101.914 48.8975C100.689 48.893 99.5515 48.6097 98.4005 48.0306C98.1761 47.8676 97.9993 47.7963 97.8327 47.7895C97.4027 47.7914 96.9966 48.1537 96.5771 48.849L96.1947 48.9427Z" fill="#FFF7ED"/>
<path d="M107.494 34.806L114.653 34.8638L114.561 48.2846L116.184 48.2923L116.169 48.8244L107.484 48.7435L107.499 48.2115L109.122 48.2192L109.232 35.3253L107.506 35.3006L107.494 34.806ZM111.945 32.8102C110.918 32.8073 110.179 32.5272 109.731 32.0022C109.284 31.4772 109.08 30.8144 109.091 30.0512C109.098 29.2558 109.329 28.6234 109.811 28.1166C110.294 27.6099 111.016 27.3631 112.01 27.3711C112.972 27.3843 113.739 27.627 114.24 28.0771C114.742 28.5273 114.979 29.185 114.982 30.045C114.986 30.9051 114.728 31.5749 114.246 32.0816C113.731 32.5935 112.971 32.8131 111.945 32.8102Z" fill="#FFF7ED"/>
<path d="M117.558 44.6323L117.621 35.42L115.998 35.4122L116.013 34.8802L117.636 34.888L117.667 31.1095L123.122 29.8151L123.07 34.9211L126.881 34.9464L126.866 35.4784L123.055 35.4531L122.997 45.3266C122.979 46.2563 123.081 46.9022 123.25 47.3389C123.418 47.7757 123.814 47.9777 124.411 47.9826C125.007 47.9874 125.526 47.7067 125.961 47.1082C126.401 46.542 126.703 45.7328 126.84 44.718L127.345 44.7704C127.194 46.1184 126.734 47.1843 126.029 47.958C125.324 48.7317 124.16 49.1147 122.537 49.1069C120.913 49.0992 119.669 48.7667 118.836 48.1042C117.948 47.5165 117.528 46.3252 117.558 44.6323Z" fill="#FFF7ED"/>
<path d="M126.849 34.9512L134.008 35.009L133.916 48.4298L135.539 48.4375L135.524 48.9695L126.838 48.8887L126.853 48.3567L128.477 48.3644L128.554 35.4756L126.829 35.4509L126.849 34.9512ZM131.267 32.9605C130.24 32.9575 129.501 32.6775 129.054 32.1525C128.606 31.6275 128.402 30.9647 128.414 30.2015C128.42 29.4061 128.651 28.7737 129.133 28.2669C129.616 27.7602 130.338 27.5134 131.332 27.5214C132.294 27.5345 133.061 27.7772 133.563 28.2274C134.064 28.6776 134.301 29.3353 134.305 30.1953C134.308 31.0553 134.05 31.7251 133.568 32.2319C133.085 32.7386 132.326 32.9582 131.267 32.9605Z" fill="#FFF7ED"/>
<path d="M134.321 35.5223L134.336 34.9903L143.086 35.0609L143.071 35.5929L141.217 35.5887L144.648 45.3399L147.881 35.6586L145.925 35.6374L145.94 35.1054L149.885 35.1426L149.87 35.6747L148.58 35.6804L144.145 49.0608L140.797 49.0284L135.487 35.5693L134.321 35.5223Z" fill="#FFF7ED"/>
<path d="M149.353 35.1276L156.512 35.1854L156.42 48.6062L158.043 48.6139L158.028 49.146L149.342 49.0651L149.357 48.5331L150.98 48.5408L151.058 35.652L149.332 35.6274L149.353 35.1276ZM153.803 33.1318C152.777 33.1289 152.037 32.8488 151.59 32.3238C151.142 31.7988 150.938 31.136 150.95 30.3728C150.956 29.5774 151.187 28.945 151.669 28.4382C152.152 27.9315 152.874 27.6847 153.869 27.6927C154.831 27.7059 155.597 27.9485 156.099 28.3987C156.6 28.8489 156.837 29.5066 156.841 30.3666C156.845 31.2267 156.587 31.8965 156.104 32.4032C155.584 32.8828 154.83 33.1347 153.803 33.1318Z" fill="#FFF7ED"/>
<path d="M159.416 44.9538L159.48 35.7414L157.856 35.7337L157.872 35.2017L159.495 35.2094L159.525 31.431L164.981 30.1366L164.934 35.2748L168.744 35.3002L168.729 35.8322L164.919 35.8068L164.861 45.6804C164.842 46.6101 164.945 47.2559 165.113 47.6927C165.282 48.1294 165.678 48.3315 166.274 48.3363C166.871 48.3411 167.389 48.0604 167.824 47.4619C168.264 46.8957 168.566 46.0865 168.703 45.0717L169.208 45.1242C169.057 46.4721 168.597 47.538 167.892 48.3117C167.187 49.0854 166.023 49.4684 164.4 49.4607C162.777 49.453 161.533 49.1204 160.699 48.4579C159.834 47.8006 159.419 46.6416 159.416 44.9538Z" fill="#FFF7ED"/>
<path d="M170.785 47.5557C169.554 46.2611 168.934 44.4393 168.931 42.1226C168.961 39.8008 169.674 38.0328 171.103 36.8135C172.531 35.5941 174.321 34.9797 176.508 34.9973C180.948 35.0224 183.058 37.2701 182.835 41.7081L174.584 41.6576L174.564 42.7862C174.538 44.7103 174.801 46.1583 175.25 47.1133C175.736 48.0955 176.576 48.5914 177.802 48.5959C180.054 48.6034 181.552 47.4061 182.265 45.0092L182.775 45.0939C182.403 46.5099 181.712 47.5793 180.744 48.3617C179.775 49.144 178.31 49.5084 176.391 49.5144C173.913 49.5428 172.021 48.8825 170.785 47.5557ZM174.594 41.0933L177.609 41.1123L177.616 39.6879C177.628 38.097 177.524 37.0212 177.367 36.4501C177.179 35.8842 176.832 35.5751 176.267 35.5651C175.703 35.5552 175.287 35.8528 175.024 36.4904C174.755 37.0956 174.628 38.1749 174.6 39.669L174.594 41.0933Z" fill="#FFF7ED"/>
<path d="M28.1099 28.081L28.0434 38.32C28.8041 36.6437 30.0631 35.8153 31.8529 35.8298C35.4971 35.8484 37.3101 38.3087 37.2818 43.1461C37.2779 45.6293 36.7366 47.4363 35.7326 48.6215C34.7236 49.7744 33.1924 50.3479 31.2038 50.3319C30.1771 50.329 29.4207 50.1509 28.8749 49.8401C28.3292 49.5293 27.9788 48.989 27.8017 48.2888L27.5782 50.0124L20.9187 49.9747L20.9338 49.4427L22.557 49.4505L22.7204 28.5374L21.0972 28.5296L21.1122 27.9976L28.1099 28.081ZM31.356 38.1263C31.1789 37.4261 30.7946 37.0898 30.2303 37.0798C29.666 37.0699 29.158 37.4152 28.7062 38.1157C28.2544 38.8162 28.0101 39.7817 28.0056 41.0072L27.9725 46.4411C27.9712 47.2689 28.1211 48.0065 28.4766 48.5791C28.7998 49.1568 29.3133 49.4727 29.9422 49.4724C30.5711 49.4721 30.9992 49.0402 31.2639 48.2038C31.4913 47.3403 31.6163 45.8309 31.6442 43.708L31.6673 42.1816C31.651 40.1981 31.5654 38.8214 31.356 38.1263Z" fill="#215E99"/>
<path d="M39.4157 48.4685C38.1845 47.1739 37.5649 45.3522 37.5621 43.0355C37.5916 40.7137 38.3046 38.9457 39.7335 37.7263C41.1623 36.5069 42.9518 35.8925 45.1393 35.9102C49.5789 35.9352 51.6893 38.1829 51.4654 42.6209L43.2151 42.5705L43.1952 43.6991C43.1689 45.6231 43.3991 47.0763 43.8805 48.0262C44.3671 49.0084 45.207 49.5043 46.4002 49.5139C48.6523 49.5213 50.1509 48.324 50.8636 45.9271L51.3735 46.0118C51.002 47.4279 50.3107 48.4973 49.3423 49.2796C48.3738 50.062 46.9088 50.4264 44.9899 50.4324C42.544 50.4557 40.6843 49.7903 39.4157 48.4685ZM43.2624 42.0333L46.2777 42.0523L46.2838 40.628C46.2966 39.037 46.2247 37.9561 46.0358 37.3902C45.8468 36.8242 45.4999 36.5151 44.9356 36.5051C44.3713 36.4952 43.9551 36.7929 43.6919 37.4304C43.4237 38.0356 43.2916 39.0827 43.2685 40.609L43.2624 42.0333Z" fill="#215E99"/>
</svg>
