<svg width="99" height="83" viewBox="0 0 99 83" fill="none" xmlns="http://www.w3.org/2000/svg">
<path d="M30.6859 9.09575L47.0965 16.027L57.5208 5.78249L66.1228 16.6543L81.7776 9.51672L79.7447 27.1058L94.1532 38.1288L79.6111 43.6713L82.7753 57.7335L68.3461 57.904L63.4065 71.0009L49.8493 66.5357L39.464 77.8716L31.2377 67.8505L14.8504 72.5609L17.9884 57.5541L5.84047 50.8312L15.5407 41.4242L7.4818 27.8964L26.5366 24.9855L30.6859 9.09575Z" fill="#EC552F"/>
<path d="M27.7533 43.3184C28.8905 41.3714 30.5901 39.7637 32.6282 38.7716C34.6182 37.8139 36.838 37.4623 39.0004 37.7623C40.2033 37.9198 41.3609 38.2987 42.4608 38.8205C42.8981 39.0457 43.4835 38.6853 43.6304 38.2605C43.8171 37.749 43.5378 37.3382 43.1006 37.1129C38.5757 34.9116 32.9704 35.6923 29.0708 38.9602C27.9633 39.912 26.9893 41.03 26.2531 42.2978C25.9976 42.713 26.0583 43.2656 26.4777 43.5472C26.871 43.8329 27.528 43.7556 27.7533 43.3184Z" fill="#FFF7ED"/>
<path d="M29.4268 53.0385C35.5057 53.8961 41.7918 53.8642 47.8201 52.374C53.7179 50.9045 59.1834 48.0578 63.8703 44.1833C66.8067 41.7639 69.4419 38.964 71.813 36.0184C72.2169 35.5261 71.8289 34.5971 71.1636 34.6221C70.6852 34.6444 70.2027 34.6405 69.7244 34.6627C69.246 34.6849 68.7829 34.9724 68.7309 35.4893C68.6926 35.9237 69.0489 36.483 69.5534 36.4566C70.0317 36.4344 70.5142 36.4383 70.9926 36.4161C70.7834 35.9406 70.5523 35.4953 70.3431 35.0198C66.4567 39.8919 61.8139 44.2145 56.2908 47.2042C51.2349 49.9325 45.6368 51.4348 39.9309 51.7496C36.5083 51.9437 33.0455 51.7158 29.6541 51.2624C29.1633 51.2063 28.6948 51.6285 28.6607 52.089C28.5523 52.588 28.936 52.9824 29.4268 53.0385Z" fill="#FFF7ED"/>
<path d="M51.5236 35.1899C54.1185 31.4593 58.1986 28.9927 62.7897 28.908C64.1244 28.884 65.4579 29.0208 66.7378 29.3268C67.2107 29.4392 67.7206 29.2782 67.9073 28.7667C68.0542 28.3419 67.8505 27.7317 67.3776 27.6192C64.8741 27.0252 62.232 26.9082 59.7017 27.4964C57.2496 28.0721 54.945 29.2403 53.0364 30.8811C51.9028 31.837 50.9068 32.9853 50.0798 34.1871C49.3724 35.129 50.8464 36.1538 51.5236 35.1899Z" fill="#FFF7ED"/>
<path d="M45.6103 33.1815C45.8789 37.0743 45.7254 41.0071 45.1595 44.8714C45.0499 45.5313 45.8323 46.0767 46.4521 45.7643C49.1759 44.3692 51.8997 42.974 54.6194 41.5527C55.0647 41.3216 55.2775 40.806 55.0725 40.3566C54.8716 39.9333 54.2996 39.7027 53.8544 39.9338C51.1305 41.329 48.4067 42.7241 45.6871 44.1454C46.1106 44.4531 46.53 44.7347 46.9796 45.0383C47.5729 41.009 47.7015 36.9195 47.4082 32.87C47.386 32.3917 46.8236 32.0524 46.3576 32.153C45.8353 32.2357 45.562 32.7073 45.6103 33.1815Z" fill="#FFF7ED"/>
</svg>
